<svg xmlns="http://www.w3.org/2000/svg" version="1.1" xmlns:xlink="http://www.w3.org/1999/xlink" width="200" height="200" x="0" y="0" viewBox="0 0 64 64" style="enable-background:new 0 0 512 512" xml:space="preserve"><g><path d="M63 22h-9a8.009 8.009 0 0 1-8-8 1 1 0 0 0-1-1h-6a6.985 6.985 0 0 1-6.052-3.5 12.7 12.7 0 0 1-.877-2.5H44a1 1 0 0 0 0-2H31a1 1 0 0 0-1 1 8.929 8.929 0 0 0 .535 3H20.5A3.5 3.5 0 0 1 17 5.5 3.5 3.5 0 0 1 20.5 2H50a14.914 14.914 0 0 1 5.268.956A15.077 15.077 0 0 1 59.861 5.7l2.48 2.173a1 1 0 1 0 1.318-1.5L61.176 4.2A16.971 16.971 0 0 0 50 0H20.5A5.505 5.505 0 0 0 15 5.5a5.506 5.506 0 0 0 5.5 5.5h11.023A9 9 0 0 0 39 15h5.05A10.014 10.014 0 0 0 54 24h9a1 1 0 0 0 0-2ZM43.5 53H32.477A9 9 0 0 0 25 49h-5.05A10.014 10.014 0 0 0 10 40H1a1 1 0 0 0 0 2h9a8.009 8.009 0 0 1 8 8 1 1 0 0 0 1 1h6a6.985 6.985 0 0 1 6.052 3.5 6.762 6.762 0 0 1 .877 2.5H20a1 1 0 0 0 0 2h13a1 1 0 0 0 1-1 8.929 8.929 0 0 0-.535-3H43.5a3.5 3.5 0 0 1 3.5 3.5 3.5 3.5 0 0 1-3.5 3.5H14a14.914 14.914 0 0 1-5.268-.956A15.077 15.077 0 0 1 4.139 58.3l-2.48-2.173a1 1 0 1 0-1.318 1.5L2.824 59.8A16.971 16.971 0 0 0 14 64h29.5a5.505 5.505 0 0 0 5.5-5.5 5.506 5.506 0 0 0-5.5-5.5ZM46.869 28.832l-.018-.036a23.65 23.65 0 0 0-7.967-8.696c-8.5-5.52-14.746-1.789-17.522.657l-4.917-3.186a3.51 3.51 0 0 0-2.668-.491 3.527 3.527 0 0 0-2.7 4.167 3.5 3.5 0 0 0 1.528 2.231l5.15 3.343C16.706 31 16.436 38.017 24.037 42.96a20.83 20.83 0 0 0 2.7 1.466h.009l.045.022a25.086 25.086 0 0 0 10.3 2.055 37.328 37.328 0 0 0 12.739-2.35 1 1 0 0 0 .625-.89 30.824 30.824 0 0 0-3.585-14.43ZM45.53 30.6a29.651 29.651 0 0 1 2.87 10.745l-10.677-6.939Zm-7.73-8.822a21.538 21.538 0 0 1 6.771 7.064l-8.8 4.293-14.498-9.423c.238-.284.53-.614.9-.978 2.541-2.496 7.951-5.934 15.627-.956Zm-24.761-.942a1.51 1.51 0 0 1 .218-1.147 1.489 1.489 0 0 1 .947-.653 1.523 1.523 0 0 1 1.157.214l4.568 2.96a7.646 7.646 0 0 0-1.557 2.625L13.7 21.8a1.513 1.513 0 0 1-.666-.964Zm6.837 5.821c.135-.467.275-.874.4-1.21l6.975 4.535-.93 12.006q-.617-.334-1.192-.706c-6.973-4.532-6.288-11.106-5.258-14.625Zm8.383 16.226.9-11.659 18.024 11.718c-3.611 1.081-11.735 2.858-18.929-.059Z" fill="#d0730f" opacity="1" data-original="#d0730f"></path></g></svg>