<svg xmlns="http://www.w3.org/2000/svg" version="1.1" xmlns:xlink="http://www.w3.org/1999/xlink" width="100" height="100" x="0" y="0" viewBox="0 0 512 512" style="enable-background:new 0 0 512 512" xml:space="preserve"><g><path d="M256.372 242.347a69.492 69.492 0 1 0-69.492-69.492 69.571 69.571 0 0 0 69.492 69.492zm0-120.984a51.492 51.492 0 1 1-51.492 51.492 51.55 51.55 0 0 1 51.492-51.492zm150.539 158.571a55.82 55.82 0 1 0-55.82-55.82 55.882 55.882 0 0 0 55.82 55.82zm0-93.639a37.82 37.82 0 1 1-37.82 37.819 37.861 37.861 0 0 1 37.82-37.814zm-301.317 93.639a55.82 55.82 0 1 0-55.82-55.82 55.883 55.883 0 0 0 55.82 55.82zm0-93.639a37.82 37.82 0 1 1-37.82 37.819 37.862 37.862 0 0 1 37.82-37.814zm398.873 159.74c-1.841-16.208-8.378-31.992-17.935-43.306-11.37-13.462-26.336-20.017-42.156-18.426a8.99 8.99 0 0 0-5 2.152c-11.145 9.652-21.723 14.123-32.36 13.71q-.361-.015-.721 0c-10.65.423-21.217-4.06-32.36-13.71a8.988 8.988 0 0 0-5-2.152 46.336 46.336 0 0 0-5.761-.214 85.238 85.238 0 0 0-5.938-7.965c-14.115-16.711-32.649-24.84-52.2-22.888a8.99 8.99 0 0 0-5 2.152c-14.722 12.75-29.4 18.914-43.637 18.354q-.36-.015-.72 0c-14.225.552-28.916-5.605-43.638-18.354a8.993 8.993 0 0 0-5-2.152c-19.542-1.953-38.083 6.177-52.2 22.888a85.641 85.641 0 0 0-5.945 7.976 46.157 46.157 0 0 0-5.849.2 8.99 8.99 0 0 0-5 2.152c-11.144 9.651-21.712 14.118-32.361 13.71q-.36-.015-.721 0c-10.652.4-21.216-4.06-32.361-13.711a8.989 8.989 0 0 0-5-2.151c-15.821-1.588-30.786 4.965-42.155 18.426-9.557 11.314-16.094 27.1-17.935 43.306-3.84 33.8 12.6 58.925 40.9 62.53a9.03 9.03 0 0 0 1.137.073h111.564a9.006 9.006 0 0 0 1.137-.073 49.978 49.978 0 0 0 9.911-2.3 63.194 63.194 0 0 0 10.685 2.3 8.99 8.99 0 0 0 1.136.073h144.124a9.006 9.006 0 0 0 1.137-.073 63.3 63.3 0 0 0 10.621-2.278 50.23 50.23 0 0 0 9.881 2.278 9.01 9.01 0 0 0 1.138.073h111.548a9.018 9.018 0 0 0 1.137-.073c28.301-3.602 44.737-28.731 40.897-62.527zM66.9 390.638v-34.287a9 9 0 0 0-18 0v34.067c-20.386-3.7-25.552-24.1-23.478-42.352 2.636-23.211 17.289-45.992 37.65-45.992h.166c13.7 11.152 27.869 16.546 42.108 16.088 10.611.337 21.169-2.571 31.527-8.68a110.473 110.473 0 0 0-4.583 21.2c-2.106 18.545.824 36.178 8.252 49.654a57.392 57.392 0 0 0 7.233 10.3zm260.618 0h-1.166v-46.929a9 9 0 0 0-18 0v46.929h-104.6v-46.929a9 9 0 1 0-18 0v46.929h-1.166c-29.737-4.119-37.289-32.565-34.408-57.928 3.541-31.18 23.473-61.756 51.254-61.756.392 0 .784.006 1.179.019 17.448 14.406 35.421 21.386 53.443 20.767 18.053.628 36-6.362 53.442-20.767 28.4-.91 48.843 30.12 52.434 61.737 2.87 25.363-4.678 53.809-34.416 57.928zm135.59-.22v-34.067a9 9 0 0 0-18 0v34.287h-80.785a57.493 57.493 0 0 0 7.233-10.3c7.427-13.476 10.358-31.109 8.252-49.654a110.43 110.43 0 0 0-4.563-21.13c10.323 6.066 20.844 8.958 31.413 8.614 14.241.459 28.4-4.937 42.107-16.088h.166c20.359 0 35.015 22.783 37.651 45.992 2.074 18.25-3.092 38.647-23.482 42.346z" fill="#d0730f" opacity="1" data-original="#d0730f"></path></g></svg>