<svg xmlns="http://www.w3.org/2000/svg" version="1.1" xmlns:xlink="http://www.w3.org/1999/xlink" width="100" height="100" x="0" y="0" viewBox="0 0 323.358 323.358" style="enable-background:new 0 0 512 512" xml:space="preserve" class=""><g><path d="M48.863 323.358h189.703c3.174 0 6.228-1.258 8.443-3.533l66.827-66.827c2.275-2.275 3.533-5.27 3.533-8.443V66.827c0-23.653-19.222-42.875-42.875-42.875h-17.006V11.976C257.489 5.389 252.099 0 245.512 0s-11.976 5.389-11.976 11.976v11.976H89.822V11.976C89.822 5.389 84.432 0 77.845 0S65.869 5.389 65.869 11.976v11.976H48.863c-23.653 0-42.875 19.222-42.875 42.875v213.656c0 23.653 19.222 42.875 42.875 42.875zm190.661-29.881v-38.504a3.476 3.476 0 0 1 3.473-3.473h38.504zM29.941 66.827c0-10.419 8.503-18.922 18.922-18.922h17.006v11.976c0 6.587 5.389 11.976 11.976 11.976s11.976-5.389 11.976-11.976V47.905h143.715v11.976c0 6.587 5.389 11.976 11.976 11.976s11.976-5.389 11.976-11.976V47.905h17.006c10.419 0 18.922 8.503 18.922 18.922v160.721h-50.42c-15.15 0-27.426 12.276-27.426 27.426v44.432H48.863c-10.419 0-18.922-8.503-18.922-18.922z" fill="#d0730f" opacity="1" data-original="#d0730f" class=""></path><circle cx="92.816" cy="122.756" r="14.97" fill="#d0730f" opacity="1" data-original="#d0730f" class=""></circle><circle cx="158.685" cy="122.756" r="14.97" fill="#d0730f" opacity="1" data-original="#d0730f" class=""></circle><circle cx="224.554" cy="122.756" r="14.97" fill="#d0730f" opacity="1" data-original="#d0730f" class=""></circle><circle cx="92.816" cy="182.637" r="14.97" fill="#d0730f" opacity="1" data-original="#d0730f" class=""></circle><circle cx="158.685" cy="182.637" r="14.97" fill="#d0730f" opacity="1" data-original="#d0730f" class=""></circle><circle cx="224.554" cy="182.637" r="14.97" fill="#d0730f" opacity="1" data-original="#d0730f" class=""></circle><circle cx="92.816" cy="242.518" r="14.97" fill="#d0730f" opacity="1" data-original="#d0730f" class=""></circle><circle cx="158.685" cy="242.518" r="14.97" fill="#d0730f" opacity="1" data-original="#d0730f" class=""></circle></g></svg>